<svg xmlns="http://www.w3.org/2000/svg" version="1.1" xmlns:xlink="http://www.w3.org/1999/xlink" width="16" height="16"><svg fill="currentColor" class="bi bi-stopwatch" viewBox="0 0 16 16" version="1.1" id="SvgjsSvg1076" sodipodi:docname="exerdice.svg" xml:space="preserve" inkscape:version="1.4.2 (ebf0e940, 2025-05-08)" xmlns:inkscape="http://www.inkscape.org/namespaces/inkscape" xmlns:sodipodi="http://sodipodi.sourceforge.net/DTD/sodipodi-0.dtd" xmlns="http://www.w3.org/2000/svg" xmlns:svg="http://www.w3.org/2000/svg"><defs id="SvgjsDefs1075"></defs><sodipodi:namedview id="SvgjsSodipodi:namedview1074" pagecolor="#ffffff" bordercolor="#000000" borderopacity="0.25" inkscape:showpageshadow="2" inkscape:pageopacity="0.0" inkscape:pagecheckerboard="0" inkscape:deskcolor="#d1d1d1" showgrid="true" inkscape:zoom="36.769553" inkscape:cx="10.157861" inkscape:cy="10.253048" inkscape:window-width="1920" inkscape:window-height="1493" inkscape:window-x="0" inkscape:window-y="25" inkscape:window-maximized="0" inkscape:current-layer="layer2"><inkscape:grid id="SvgjsInkscape:grid1073" units="px" originx="0" originy="0" spacingx="1" spacingy="1" empcolor="#0099e5" empopacity="0.30196078" color="#0099e5" opacity="0.14901961" empspacing="5" enabled="true" visible="true"></inkscape:grid></sodipodi:namedview><path d="m 6.5,0.83682151 a 0.5,0.5 0 0 1 0.5,-0.5 H 9 A 0.5,0.5 0 0 1 9,1.3368215 v 0.57 c 1.36,0.196 2.594,0.78 3.584,1.64 l 0.012,-0.013 0.354,-0.354 -0.354,-0.353 a 0.50027817,0.50027817 0 0 1 0.707,-0.708 l 1.414,1.415 a 0.5,0.5 0 1 1 -0.707,0.707 l -0.353,-0.354 -0.354,0.354 -0.013,0.012 A 7,7 0 1 1 7,1.9078215 v -0.571 A 0.5,0.5 0 0 1 6.5,0.83682151 M 8,2.8368215 A 6,6 0 1 0 8.001,14.836822 6,6 0 0 0 8,2.8368215" id="SvgjsPath1072" style="fill:#15c580"></path><g inkscape:groupmode="layer" id="SvgjsG1071" inkscape:label="Layer 1"><path style="fill:#0f1a26;stroke-width:0.839875" id="SvgjsPath1070" sodipodi:type="arc" sodipodi:cx="7.9977937" sodipodi:cy="8.8391981" sodipodi:rx="6.0073342" sodipodi:ry="6.0644393" sodipodi:start="5.441407" sodipodi:end="5.4408761" sodipodi:arc-type="arc" d="M 11.999505,4.316164 A 6.0073342,6.0644393 0 0 1 12.478768,12.878349 6.0073342,6.0644393 0 0 1 3.9972721,13.363304 6.0073342,6.0644393 0 0 1 3.5157572,4.8012486 6.0073342,6.0644393 0 0 1 11.997125,4.31402" sodipodi:open="true"></path><path style="fill:#ffffff;stroke-width:0.781495" id="SvgjsPath1069" sodipodi:type="arc" sodipodi:cx="8.0253582" sodipodi:cy="8.8458033" sodipodi:rx="5.5897593" sodipodi:ry="5.6428947" sodipodi:start="5.441407" sodipodi:end="5.4408761" sodipodi:arc-type="arc" d="M 11.748907,4.6371693 A 5.5897593,5.6428947 0 0 1 12.194856,12.604189 5.5897593,5.6428947 0 0 1 4.3029163,13.055435 5.5897593,5.6428947 0 0 1 3.8548719,5.0885352 5.5897593,5.6428947 0 0 1 11.746693,4.6351743" sodipodi:open="true"></path></g><g inkscape:groupmode="layer" id="SvgjsG1068" inkscape:label="Layer 2"><g style="fill:#1a1a1a" id="SvgjsG1067" transform="matrix(0.01771052,0,0,0.01771052,3.7667984,4.3208218)"><g id="SvgjsG1066" stroke-width="0"></g><g id="SvgjsG1065" stroke-linecap="round" stroke-linejoin="round"></g><g id="SvgjsG1064"><path d="M 106.75,215.06 1.2,370.95 c -3.08,5 0.1,11.5 5.93,12.14 l 208.26,22.07 z M 7.41,315.43 82.7,193.08 6.06,147.1 C 3.39,145.5 0,147.42 0,150.53 v 162.81 c 0,4.03 5.29,5.53 7.41,2.09 z m 10.84,108.17 194.4,87.66 C 217.95,513.71 224,509.83 224,504 V 438.33 L 20.45,416.03 c -4.45,-0.5 -6.23,5.59 -2.2,7.57 z M 99.47,165.82 179.4,22.88 C 183.74,15.82 175.81,7.63 168.62,11.74 L 17.81,110.35 c -2.47,1.62 -2.39,5.26 0.13,6.78 z M 240,176 H 349.21 L 253.63,7.62 C 250.5,2.54 245.25,0 240,0 234.75,0 229.5,2.54 226.37,7.62 L 130.79,176 Z m 233.94,-28.9 -76.64,45.99 75.29,122.35 c 2.11,3.44 7.41,1.94 7.41,-2.1 V 150.53 c 0,-3.11 -3.39,-5.03 -6.06,-3.43 z m -93.41,18.72 81.53,-48.7 c 2.53,-1.52 2.6,-5.16 0.13,-6.78 L 311.38,11.74 C 304.19,7.63 296.26,15.82 300.6,22.88 Z M 459.55,416.03 256,438.32 v 65.67 c 0,5.84 6.05,9.71 11.35,7.26 l 194.4,-87.66 c 4.03,-1.97 2.25,-8.06 -2.2,-7.56 z m -86.3,-200.97 -108.63,190.1 208.26,-22.07 c 5.83,-0.65 9.01,-7.14 5.93,-12.14 z M 240,208 H 139.57 L 240,383.75 340.43,208 Z" id="SvgjsPath1063"></path></g></g></g></svg><style>@media (prefers-color-scheme: light) { :root { filter: none; } }
@media (prefers-color-scheme: dark) { :root { filter: none; } }
</style></svg>