<?xml version="1.0" encoding="UTF-8" standalone="no"?>
<svg viewBox="0 0 320 205" width="85mm" height="55mm">
  <g class="hero-stopwatch" transform="matrix(8.4647429,0,0,8.4647429,91.867039,12.306407)">
    <path class="hero-stopwatch-frame" style="fill:#15c580" d="m 6.5,0.83682151 a 0.5,0.5 0 0 1 0.5,-0.5 H 9 A 0.5,0.5 0 0 1 9,1.3368215 v 0.57 c 1.36,0.196 2.594,0.78 3.584,1.64 l 0.012,-0.013 0.354,-0.354 -0.354,-0.353 a 0.50027817,0.50027817 0 0 1 0.707,-0.708 l 1.414,1.415 a 0.5,0.5 0 1 1 -0.707,0.707 l -0.353,-0.354 -0.354,0.354 -0.013,0.012 A 7,7 0 1 1 7,1.9078215 v -0.571 A 0.5,0.5 0 0 1 6.5,0.83682151 M 8,2.8368215 A 6.0000003,6.0000003 0 1 0 8.001,14.836822 6.0000003,6.0000003 0 0 0 8,2.8368215" />
    <path style="fill:#0f1a26;stroke-width:0.8" d="M 11.999505,4.316164 A 6.0073342,6.0644393 0 0 1 12.478768,12.878349 6.0073342,6.0644393 0 0 1 3.9972721,13.363304 6.0073342,6.0644393 0 0 1 3.5157572,4.8012486 6.0073342,6.0644393 0 0 1 11.997125,4.31402" />
    <path class="hero-stopwatch-face" style="fill:#ffffff;stroke-width:0.781495" d="M 11.748907,4.6371693 A 5.5897593,5.6428947 0 0 1 12.194856,12.604189 5.5897593,5.6428947 0 0 1 4.3029163,13.055435 5.5897593,5.6428947 0 0 1 3.8548719,5.0885352 5.5897593,5.6428947 0 0 1 11.746693,4.6351743" />
    <g transform="matrix(0.01771052,0,0,0.01771052,3.7667984,4.3208218)">
      <path class="hero-dice" fill="currentColor" d="M 106.75,215.06 1.2,370.95 c -3.08,5 0.1,11.5 5.93,12.14 l 208.26,22.07 z M 7.41,315.43 82.7,193.08 6.06,147.1 C 3.39,145.5 0,147.42 0,150.53 v 162.81 c 0,4.03 5.29,5.53 7.41,2.09 z m 10.84,108.17 194.4,87.66 C 217.95,513.71 224,509.83 224,504 V 438.33 L 20.45,416.03 c -4.45,-0.5 -6.23,5.59 -2.2,7.57 z M 99.47,165.82 179.4,22.88 C 183.74,15.82 175.81,7.63 168.62,11.74 L 17.81,110.35 c -2.47,1.62 -2.39,5.26 0.13,6.78 z M 240,176 H 349.21 L 253.63,7.62 C 250.5,2.54 245.25,0 240,0 234.75,0 229.5,2.54 226.37,7.62 L 130.79,176 Z m 233.94,-28.9 -76.64,45.99 75.29,122.35 c 2.11,3.44 7.41,1.94 7.41,-2.1 V 150.53 c 0,-3.11 -3.39,-5.03 -6.06,-3.43 z m -93.41,18.72 81.53,-48.7 c 2.53,-1.52 2.6,-5.16 0.13,-6.78 L 311.38,11.74 C 304.19,7.63 296.26,15.82 300.6,22.88 Z M 459.55,416.03 256,438.32 v 65.67 c 0,5.84 6.05,9.71 11.35,7.26 l 194.4,-87.66 c 4.03,-1.97 2.25,-8.06 -2.2,-7.56 z m -86.3,-200.97 -108.63,190.1 208.26,-22.07 c 5.83,-0.65 9.01,-7.14 5.93,-12.14 z M 240,208 H 139.57 L 240,383.75 340.43,208 Z" />
    </g>
  </g>
  <g>
    <text class="hero-text" x="21.898186" y="198.10318">
      <tspan x="21.898186" y="198.10318" style="font-weight:bold;font-size:54.5379px;font-family:Futura;fill:#ffffff;stroke:#0f1a26;stroke-width:2.5;">EXERDICE</tspan>
    </text>
    <g transform="matrix(0.08912023,0,0,0.08912023,217.01554,97.559683)">
      <path class="hero-heart" style="fill:#15c580;fill-opacity:1" d="M 320,171.9 305,151.1 C 280,116.5 239.9,96 197.1,96 123.6,96 64,155.6 64,229.1 v 2.6 c 0,23.6 6.2,48 16.6,72.3 h 106 c 3.2,0 6.1,-1.9 7.4,-4.9 l 31.8,-76.3 c 3.7,-8.8 12.3,-14.6 21.8,-14.8 9.5,-0.2 18.3,5.4 22.2,14.1 l 51.3,113.9 41.4,-82.8 c 4.1,-8.1 12.4,-13.3 21.5,-13.3 9.1,0 17.4,5.1 21.5,13.3 l 23.2,46.3 c 1.4,2.7 4.1,4.4 7.2,4.4 h 123.6 c 10.5,-24.3 16.6,-48.7 16.6,-72.3 V 229 C 576,155.6 516.4,96 442.9,96 400.2,96 360,116.5 335,151.1 l -15,20.7 z M 533.6,352 h -97.8 c -21.2,0 -40.6,-12 -50.1,-31 l -1.7,-3.4 -42.5,85.1 c -4.1,8.3 -12.7,13.5 -22,13.3 -9.3,-0.2 -17.6,-5.7 -21.4,-14.1 l -49.3,-109.5 -10.5,25.2 c -8.7,20.9 -29.1,34.5 -51.7,34.5 h -80.2 c 47.2,73.8 123,141.7 170.4,177.9 12.4,9.4 27.6,14.1 43.1,14.1 15.5,0 30.8,-4.6 43.1,-14.1 47.6,-36.3 123.4,-104.2 170.6,-178 z" />
    </g>
  </g>
</svg>
